<svg width="1127" height="846" viewBox="0 0 1127 846" fill="none" xmlns="http://www.w3.org/2000/svg">
<g clip-path="url(#clip0_369_2)">
<mask id="mask0_369_2" style="mask-type:alpha" maskUnits="userSpaceOnUse" x="0" y="0" width="1127" height="846">
<path d="M1121.13 0H5.86979C2.628 0 0 3.26805 0 7.2994V838.701C0 842.732 2.628 846 5.86979 846H1121.13C1124.37 846 1127 842.732 1127 838.701V7.2994C1127 3.26805 1124.37 0 1121.13 0Z" fill="#1C1C1C"/>
</mask>
<g mask="url(#mask0_369_2)">
<path d="M1084.89 454.947C1084.89 454.947 834.436 296.351 497.188 297.627C159.911 298.895 688.655 811.891 688.655 811.891C688.644 811.874 659.332 782.92 659.332 782.92" stroke="#F79BD3" stroke-width="0.877694"/>
<path d="M1071.12 443.284C1071.12 443.284 822.494 279.448 484.94 282.693C147.401 285.937 670.018 817.547 670.018 817.547C670.007 817.53 641.04 787.521 641.04 787.521" stroke="#F79BD3" stroke-width="0.877694"/>
<path d="M1056.98 431.264C1056.98 431.264 810.161 262.169 472.315 267.391C134.472 272.615 651.013 822.831 651.013 822.831C651.002 822.814 622.38 791.75 622.38 791.75" stroke="#F79BD3" stroke-width="0.877694"/>
<path d="M1042.31 418.712C1042.31 418.712 797.272 244.356 459.116 251.552C120.952 258.753 631.455 827.571 631.455 827.571C631.443 827.553 603.164 795.434 603.164 795.434" stroke="#F79BD3" stroke-width="0.877694"/>
<path d="M1027.57 406.097C1027.57 406.097 784.314 226.494 445.829 235.663C107.346 244.833 611.827 832.267 611.827 832.267C611.815 832.249 583.876 799.083 583.876 799.083" stroke="#F79BD3" stroke-width="0.877694"/>
<path d="M1012.75 393.426C1012.75 393.426 771.246 208.556 432.413 219.696C93.5692 230.841 592.087 836.893 592.087 836.893C592.077 836.876 564.475 802.655 564.475 802.655" stroke="#F79BD3" stroke-width="0.877694"/>
<path d="M997.88 380.686C997.88 380.686 758.118 190.546 418.893 203.662C79.6693 216.78 572.263 841.468 572.263 841.468C572.251 841.451 544.985 806.166 544.985 806.166" stroke="#F79BD3" stroke-width="0.877694"/>
<path d="M982.959 367.897C982.959 367.897 744.919 172.482 405.313 187.585C65.7099 202.671 552.396 846 552.396 846C552.384 845.983 525.451 809.651 525.451 809.651" stroke="#F79BD3" stroke-width="0.877694"/>
<path d="M595.161 179.767C595.161 179.767 1006.38 279.317 1119.65 514.324C1232.92 749.313 -0.625732 622.875 -0.625732 622.875L68.8565 629.638" stroke="#F79BD3" stroke-width="0.877694"/>
<path d="M576.005 168.861C576.005 168.861 980.135 270.68 1095.85 504.609C1211.56 738.537 2.92236 603.893 2.92236 603.893L70.9931 611.131" stroke="#F79BD3" stroke-width="0.877694"/>
<path d="M556.661 156.082C556.661 156.082 953.696 260.165 1071.84 493.013C1189.98 725.859 6.28613 583.042 6.28613 583.042L72.9441 590.739" stroke="#F79BD3" stroke-width="0.877694"/>
<path d="M537.131 143.173C537.131 143.173 927.071 249.516 1047.64 481.299C1168.22 713.077 9.45801 562.078 9.45801 562.078L74.7046 570.242" stroke="#F79BD3" stroke-width="0.877694"/>
<path d="M517.442 130.133C517.442 130.133 900.27 238.715 1023.27 469.43C1146.26 700.13 12.4409 540.977 12.4409 540.977L76.2748 549.599" stroke="#F79BD3" stroke-width="0.877694"/>
<path d="M497.582 117.036C497.582 117.036 873.307 227.867 998.709 457.497C1124.11 687.123 15.2317 519.818 15.2317 519.818L77.6541 528.904" stroke="#F79BD3" stroke-width="0.877694"/>
<path d="M476.956 104.306C476.956 104.306 845.573 217.383 973.367 445.927C1101.17 674.471 17.2085 499.036 17.2085 499.036L78.2168 508.58" stroke="#F79BD3" stroke-width="0.877694"/>
<path d="M456.036 91.622C456.036 91.622 817.542 206.94 947.716 434.395C1077.91 661.862 18.9023 478.321 18.9023 478.321L78.4993 488.325" stroke="#F79BD3" stroke-width="0.877694"/>
<path d="M433.861 79.7263C433.861 79.7263 788.241 197.264 920.804 423.661C1053.36 650.04 19.3167 458.401 19.3167 458.401L77.4995 468.862" stroke="#F79BD3" stroke-width="0.877694"/>
<path d="M410.707 68.4188C410.707 68.4188 757.966 188.186 892.886 413.492C1027.81 638.797 18.7131 439.058 18.7131 439.058L75.4845 449.98" stroke="#F79BD3" stroke-width="0.877694"/>
<path d="M386.639 57.6656C386.639 57.6656 726.772 179.658 864.032 403.871C1001.3 628.082 17.167 420.277 17.167 420.277L72.5243 431.658" stroke="#F79BD3" stroke-width="0.877694"/>
<path d="M361.749 47.4442C361.749 47.4442 694.75 171.656 834.336 394.774C973.933 617.903 14.7439 402.041 14.7439 402.041L68.6898 413.876" stroke="#F79BD3" stroke-width="0.877694"/>
<path d="M336.748 37.8326C336.748 37.8326 662.604 164.242 804.515 386.295C946.422 608.329 12.2195 384.449 12.2195 384.449L64.7513 396.74" stroke="#F79BD3" stroke-width="0.877694"/>
<path d="M311.747 28.771C311.747 28.771 630.457 157.388 774.659 378.343C918.864 599.292 9.63525 367.381 9.63525 367.381L60.753 380.126" stroke="#F79BD3" stroke-width="0.877694"/>
<path d="M288.471 20.5378C288.471 20.5378 600.027 151.358 746.501 371.211C892.976 591.067 8.7356 351.15 8.7356 351.15L58.4392 364.349" stroke="#F79BD3" stroke-width="0.877694"/>
<path d="M266.697 13.0502C266.697 13.0502 571.085 146.051 719.819 364.817C868.551 583.586 9.27686 335.679 9.27686 335.679L57.5637 349.33" stroke="#F79BD3" stroke-width="0.877694"/>
<path d="M246.334 6.22411C246.334 6.22411 543.554 141.415 694.511 359.077C845.468 576.737 11.1975 320.872 11.1975 320.872L58.0703 334.975" stroke="#F79BD3" stroke-width="0.877694"/>
<path d="M227.273 0C227.273 0 517.315 137.374 670.48 353.945C823.644 570.519 14.3867 306.706 14.3867 306.706C14.3761 306.71 59.8454 321.261 59.8454 321.261" stroke="#F79BD3" stroke-width="0.877694"/>
</g>
</g>
<defs>
<clipPath id="clip0_369_2">
<rect width="1127" height="846" fill="white"/>
</clipPath>
</defs>
</svg>
