<!DOCTYPE svg PUBLIC "-//W3C//DTD SVG 1.1//EN" "http://www.w3.org/Graphics/SVG/1.1/DTD/svg11.dtd">
<!-- Uploaded to: SVG Repo, www.svgrepo.com, Transformed by: SVG Repo Mixer Tools -->
<svg width="800px" height="800px" viewBox="0 0 64 64" version="1.1" xmlns="http://www.w3.org/2000/svg" xmlns:xlink="http://www.w3.org/1999/xlink" fill="#000000">
<g id="SVGRepo_bgCarrier" stroke-width="0"/>
<g id="SVGRepo_tracerCarrier" stroke-linecap="round" stroke-linejoin="round"/>
<g id="SVGRepo_iconCarrier"> <title>cld-cloud-wifi</title> <desc>Created with Sketch.</desc> <defs> </defs> <g id="General" stroke="none" stroke-width="1" fill="none" fill-rule="evenodd"> <g id="SLICES-64px" transform="translate(-450.000000, -200.000000)"> </g> <g id="ICONS" transform="translate(-445.000000, -195.000000)"> <g id="cld-cloud-wifi" transform="translate(454.000000, 202.000000)"> <path d="M39.9912,12.5088 C43.4912,13.7408 46.0002,17.0778 46.0002,20.9998 C46.0002,25.9708 41.9702,29.9998 37.0002,29.9998 L8.0002,29.9998 C3.5822,29.9998 0.0002,26.4178 0.0002,21.9998 C0.0002,18.1298 2.7492,14.9018 6.4002,14.1598 L6.4022,14.1658 C6.1422,13.4938 6.0002,12.7638 6.0002,11.9998 C6.0002,8.6868 8.6862,5.9998 12.0002,5.9998 C13.8602,5.9998 15.5232,6.8478 16.6242,8.1768 L16.6222,8.1758 C18.2192,3.4238 22.7102,-0.0002 28.0002,-0.0002 C34.6272,-0.0002 40.0002,5.3728 40.0002,11.9998 C40.0002,12.1698 39.9962,12.3398 39.9892,12.5088 L39.9912,12.5088 Z" id="Fill-615" fill="#FFFFFF"> </path> <path d="M39.9912,12.5088 C43.4912,13.7408 46.0002,17.0778 46.0002,20.9998 C46.0002,25.9708 41.9702,29.9998 37.0002,29.9998 L8.0002,29.9998 C3.5822,29.9998 0.0002,26.4178 0.0002,21.9998 C0.0002,18.1298 2.7492,14.9018 6.4002,14.1598 L6.4022,14.1658 C6.1422,13.4938 6.0002,12.7638 6.0002,11.9998 C6.0002,8.6868 8.6862,5.9998 12.0002,5.9998 C13.8602,5.9998 15.5232,6.8478 16.6242,8.1768 L16.6222,8.1758 C18.2192,3.4238 22.7102,-0.0002 28.0002,-0.0002 C34.6272,-0.0002 40.0002,5.3728 40.0002,11.9998 C40.0002,12.1698 39.9962,12.3398 39.9892,12.5088 L39.9912,12.5088 Z" id="Stroke-616" stroke="#3d30a2" stroke-width="2" stroke-linecap="round" stroke-linejoin="round"> </path> <path d="M35.8184,38.6367 C32.5534,41.9477 28.0164,43.9997 23.0004,43.9997 C18.0304,43.9997 13.5304,41.9857 10.2734,38.7277" id="Stroke-617" stroke="#1c85e8" stroke-width="2" stroke-linecap="round" stroke-linejoin="round"> </path> <path d="M31.4854,34.4854 C26.7984,39.1724 19.2014,39.1724 14.5144,34.4854" id="Stroke-618" stroke="#1c85e8" stroke-width="2" stroke-linecap="round" stroke-linejoin="round"> </path> <path d="M6.7363,43.2637 C15.7183,52.2447 30.2813,52.2447 39.2633,43.2637" id="Stroke-619" stroke="#1c85e8" stroke-width="2" stroke-linecap="round" stroke-linejoin="round"> </path> </g> </g> </g> </g>
</svg>