<svg width="1070" height="900" viewBox="0 0 1070 900" fill="none" xmlns="http://www.w3.org/2000/svg">
    <style>
        @keyframes wave {
            0% {
                -webkit-transform: translateY(0);
                transform: scale(1);
            }

            50% {
                -webkit-transform: translateY(10px);
                transform: translateY(10px);
            }

            100% {
                -webkit-transform: translateY(1);
                transform: translateY(0);
            }
        }

        @keyframes wave2 {
            0% {
                -webkit-transform: translateY(10px);
                transform: translateY(10px);
            }

            50% {
                -webkit-transform: translateY(0px);
                transform: translateY(0px);
            }

            100% {
                -webkit-transform: translateY(10px);
                transform: translateY(10px);
            }
        }

        @keyframes pulse {
            0% {
                -webkit-transform: scale(1);
                transform: scale(1);
            }

            70% {
                -webkit-transform: scale(1.2);
                transform: scale(1.2);
            }

            100% {
                -webkit-transform: scale(1);
                transform: scale(1);
            }
        }

        @keyframes waveX {
            0% {
                -webkit-transform: translateX(0);
                transform: scale(1);
            }

            70% {
                -webkit-transform: translateX(10px);
                transform: translateX(10px);
            }

            100% {
                -webkit-transform: translateX(0);
                transform: translateX(0);
            }
        }

        .wavepath {
            animation: wave 3s ease-in infinite;
            -webkit-animation: wave 3s ease-in infinite;
            -webkit-transform-origin: center;
            -ms-transform-origin: center;
            transform-origin: center;
            transform-box: fill-box;
        }

        .wavepath2 {
            animation: wave2 3s ease-in infinite;
            -webkit-animation: wave2 3s ease-in infinite;
            -webkit-transform-origin: center;
            -ms-transform-origin: center;
            transform-origin: center;
            transform-box: fill-box;
        }

        .heartbeater {
            animation: pulse 3s ease-in infinite;
            -webkit-animation: pulse 3s ease-in infinite;
            -webkit-transform-origin: center;
            -ms-transform-origin: center;
            transform-origin: center;
            transform-box: fill-box;
        }

        .heartbeater2 {
            animation: pulse 6s ease-in infinite;
            -webkit-animation: pulse 6s ease-in infinite;
            -webkit-transform-origin: center;
            -ms-transform-origin: center;
            transform-origin: center;
            transform-box: fill-box;
        }

        .wavexanimations{
            animation: waveX 6s ease-in infinite;
            -webkit-animation: waveX 6s ease-in infinite;
            -webkit-transform-origin: center;
            -ms-transform-origin: center;
            transform-origin: center;
            transform-box: fill-box;
        }
    </style>
    <g clip-path="url(#clip0_214_88)">
        <g clip-path="url(#clip1_214_88)">
            <mask id="mask0_214_88" style="mask-type:luminance" maskUnits="userSpaceOnUse" x="106" y="31" width="844"
                height="838">
                <path d="M949.53 31H106V868.007H949.53V31Z" fill="white" />
            </mask>
            <g mask="url(#mask0_214_88)">
                <path
                    d="M542.725 777.623C740.807 777.623 901.38 617.046 901.38 418.963C901.38 220.881 740.807 60.304 542.725 60.304C344.643 60.304 184.065 220.881 184.065 418.963C184.065 617.046 344.643 777.623 542.725 777.623Z"
                    stroke="#D1E8F7" stroke-width="1.91649" stroke-miterlimit="10" />
                <path class="heartbeater"
                    d="M250.948 221.002C257.925 221.002 263.581 215.346 263.581 208.369C263.581 201.392 257.925 195.737 250.948 195.737C243.972 195.737 238.316 201.392 238.316 208.369C238.316 215.346 243.972 221.002 250.948 221.002Z"
                    fill="#FEBB94" />
                <path class="heartbeater"
                    d="M901.38 445.255C908.36 445.255 914.02 439.6 914.02 432.623C914.02 425.646 908.36 419.99 901.38 419.99C894.41 419.99 888.75 425.646 888.75 432.623C888.75 439.6 894.41 445.255 901.38 445.255Z"
                    fill="#5661AE" />
                <path class="heartbeater"
                    d="M557.436 790.255C564.412 790.255 570.068 784.599 570.068 777.623C570.068 770.646 564.412 764.99 557.436 764.99C550.459 764.99 544.803 770.646 544.803 777.623C544.803 784.599 550.459 790.255 557.436 790.255Z"
                    fill="#1C85E8" />
                <path
                    d="M551.034 688.876C698.798 688.876 818.584 569.09 818.584 421.326C818.584 273.561 698.798 153.775 551.034 153.775C403.269 153.775 283.483 273.561 283.483 421.326C283.483 569.09 403.269 688.876 551.034 688.876Z"
                    stroke="#D1E8F7" stroke-width="1.42966" stroke-miterlimit="10" />
                <path
                    d="M813.998 484.643C819.202 484.643 823.421 480.424 823.421 475.22C823.421 470.015 819.202 465.796 813.998 465.796C808.793 465.796 804.574 470.015 804.574 475.22C804.574 480.424 808.793 484.643 813.998 484.643Z"
                    fill="#FEBB94" />
                <path class="heartbeater"
                    d="M302.885 531.296C308.09 531.296 312.309 527.077 312.309 521.872C312.309 516.668 308.09 512.449 302.885 512.449C297.681 512.449 293.462 516.668 293.462 521.872C293.462 527.077 297.681 531.296 302.885 531.296Z"
                    fill="#5661AE" />
                <path
                    d="M431.189 191.289C436.394 191.289 440.613 187.07 440.613 181.865C440.613 176.661 436.394 172.442 431.189 172.442C425.985 172.442 421.766 176.661 421.766 181.865C421.766 187.07 425.985 191.289 431.189 191.289Z"
                    fill="#1C85E8" />
                <path
                    d="M690.284 717.603H381.305C367.9 717.603 358.078 706.736 359.367 693.331L412.112 144.636C413.4 131.231 425.311 120.364 438.716 120.364H747.695C761.1 120.364 770.922 131.231 769.633 144.636L716.888 693.331C715.6 706.736 703.688 717.603 690.284 717.603Z"
                    fill="#1C85E8" />
                <path
                    d="M668.508 717.603H359.529C346.125 717.603 336.303 706.736 337.591 693.331L390.336 144.636C391.625 131.231 403.536 120.364 416.941 120.364H725.92C739.324 120.364 749.146 131.231 747.858 144.636L695.113 693.331C693.824 706.736 681.913 717.603 668.508 717.603Z"
                    fill="url(#paint0_linear_214_88)" />
                <path
                    d="M656.799 699.362H374.746C362.323 699.362 353.22 689.292 354.414 676.869L403.994 161.098C405.189 148.675 416.227 138.605 428.65 138.605H710.703C723.126 138.605 732.229 148.675 731.035 161.098L681.455 676.869C680.26 689.292 669.222 699.362 656.799 699.362Z"
                    fill="white" />
                <path
                    d="M679.418 373.237L376.847 372.968C375.611 373.002 374.382 372.771 373.242 372.292C372.103 371.813 371.078 371.096 370.238 370.189C369.397 369.283 368.76 368.207 368.368 367.035C367.976 365.862 367.839 364.619 367.966 363.389L384.278 182.26C384.573 179.646 385.815 177.231 387.769 175.47C389.722 173.708 392.252 172.723 394.882 172.698L697.453 172.967C698.689 172.934 699.918 173.164 701.058 173.643C702.197 174.123 703.222 174.839 704.062 175.746C704.903 176.653 705.54 177.728 705.932 178.901C706.324 180.073 706.461 181.316 706.334 182.546L690.022 363.676C689.727 366.289 688.485 368.704 686.531 370.466C684.578 372.227 682.048 373.213 679.418 373.237Z"
                    fill="url(#paint1_linear_214_88)" />
                <path class="wavexanimations"
                    d="M669.891 568.406H542.006C541.063 568.425 540.126 568.24 539.26 567.866C538.394 567.492 537.619 566.936 536.986 566.236C536.354 565.536 535.879 564.709 535.594 563.809C535.308 562.91 535.22 561.96 535.333 561.024L550.861 399.488C551.085 397.485 552.029 395.632 553.518 394.274C555.007 392.916 556.938 392.146 558.953 392.106H686.839C687.782 392.087 688.718 392.271 689.584 392.646C690.45 393.02 691.225 393.576 691.858 394.276C692.491 394.976 692.966 395.803 693.251 396.702C693.536 397.602 693.625 398.552 693.511 399.488L677.983 561.024C677.759 563.026 676.815 564.879 675.326 566.237C673.838 567.595 671.906 568.366 669.891 568.406Z"
                    fill="url(#paint2_linear_214_88)" />
                <path
                    d="M639.403 479.294C653.826 465.549 655.395 443.785 642.909 430.685C630.422 417.584 608.609 418.107 594.187 431.852C579.765 445.598 578.195 467.361 590.682 480.462C603.168 493.563 624.981 493.04 639.403 479.294Z"
                    stroke="#EF6A77" stroke-width="11.6898" stroke-miterlimit="10" />
                <path
                    d="M600.583 487.348C588.619 482.182 581.036 469.901 582.413 455.573C584.238 436.584 601.111 421.191 620.1 421.191"
                    stroke="white" stroke-width="11.6898" stroke-miterlimit="10" stroke-linecap="round" />
                <path d="M597.744 516.904H624.054" stroke="white" stroke-width="5.98374" stroke-miterlimit="10"
                    stroke-linecap="round" />
                <path d="M594.879 546.701H621.19" stroke="white" stroke-width="5.98374" stroke-miterlimit="10"
                    stroke-linecap="round" />
                <path opacity="0.4" d="M582.296 531.634H636.67" stroke="white" stroke-width="5.98374"
                    stroke-miterlimit="10" stroke-linecap="round" />
                <path
                    d="M513.495 568.406H385.61C384.667 568.425 383.73 568.24 382.864 567.866C381.999 567.492 381.223 566.936 380.59 566.236C379.958 565.536 379.483 564.709 379.198 563.809C378.912 562.91 378.824 561.96 378.937 561.024L394.465 399.488C394.689 397.485 395.633 395.632 397.122 394.274C398.611 392.916 400.542 392.146 402.557 392.106H530.443C531.386 392.087 532.322 392.271 533.188 392.646C534.054 393.02 534.829 393.576 535.462 394.276C536.095 394.976 536.57 395.803 536.855 396.702C537.14 397.602 537.229 398.552 537.115 399.488L521.587 561.024C521.363 563.026 520.419 564.879 518.93 566.237C517.442 567.595 515.51 568.366 513.495 568.406Z"
                    fill="#FEBB94" />
                <path
                    d="M483.007 479.294C497.429 465.549 498.998 443.785 486.512 430.685C474.026 417.584 452.212 418.107 437.79 431.852C423.368 445.598 421.799 467.361 434.285 480.462C446.771 493.563 468.585 493.04 483.007 479.294Z"
                    stroke="#EF6A77" stroke-width="11.6898" stroke-miterlimit="10" />
                <path
                    d="M494.781 455.573C492.956 474.562 476.083 489.955 457.094 489.955C438.105 489.955 424.191 474.562 426.017 455.573C427.842 436.584 444.715 421.191 463.704 421.191"
                    stroke="white" stroke-width="11.6898" stroke-miterlimit="10" stroke-linecap="round" />
                <path d="M441.348 516.904H467.658" stroke="white" stroke-width="5.98374" stroke-miterlimit="10"
                    stroke-linecap="round" />
                <path d="M438.483 546.701H464.794" stroke="white" stroke-width="5.98374" stroke-miterlimit="10"
                    stroke-linecap="round" />
                <path opacity="0.4" d="M425.9 531.634H480.274" stroke="white" stroke-width="5.98374"
                    stroke-miterlimit="10" stroke-linecap="round" />
                <path
                    d="M659.171 683.944H374.117C373.223 683.961 372.336 683.787 371.516 683.432C370.695 683.077 369.96 682.55 369.36 681.887C368.761 681.224 368.311 680.44 368.04 679.587C367.77 678.735 367.686 677.835 367.793 676.947L376.3 588.461C376.512 586.563 377.407 584.806 378.818 583.519C380.229 582.232 382.059 581.502 383.969 581.464H669.022C669.916 581.446 670.803 581.621 671.624 581.976C672.444 582.331 673.179 582.857 673.779 583.521C674.378 584.184 674.828 584.968 675.099 585.82C675.369 586.673 675.453 587.573 675.346 588.461L666.84 676.947C666.627 678.845 665.733 680.601 664.322 681.888C662.911 683.176 661.08 683.906 659.171 683.944Z"
                    fill="url(#paint3_linear_214_88)" />
                <path d="M393.968 663.427L397.989 621.595" stroke="white" stroke-width="11.6898" stroke-miterlimit="10"
                    stroke-linecap="round" />
                <path d="M423.473 634.123L420.656 663.427" stroke="white" stroke-width="11.6898" stroke-miterlimit="10"
                    stroke-linecap="round" />
                <path d="M449.199 644.131L447.344 663.427" stroke="white" stroke-width="11.6898" stroke-miterlimit="10"
                    stroke-linecap="round" />
                <path d="M479.098 610.724L474.032 663.427" stroke="white" stroke-width="11.6898" stroke-miterlimit="10"
                    stroke-linecap="round" />
                <path d="M502.575 644.131L500.72 663.427" stroke="white" stroke-width="11.6898" stroke-miterlimit="10"
                    stroke-linecap="round" />
                <path d="M532.251 613.052L527.408 663.427" stroke="white" stroke-width="11.6898" stroke-miterlimit="10"
                    stroke-linecap="round" />
                <path d="M556.107 642.511L554.096 663.427" stroke="white" stroke-width="11.6898" stroke-miterlimit="10"
                    stroke-linecap="round" />
                <path d="M581.855 652.285L580.784 663.427" stroke="white" stroke-width="11.6898" stroke-miterlimit="10"
                    stroke-linecap="round" />
                <path d="M611.493 621.595L607.472 663.427" stroke="white" stroke-width="11.6898" stroke-miterlimit="10"
                    stroke-linecap="round" />
                <path d="M639.712 605.667L634.16 663.427" stroke="white" stroke-width="11.6898" stroke-miterlimit="10"
                    stroke-linecap="round" />
                <path
                    d="M401.355 345.462L417.375 370.557C418.098 371.69 418.344 373.062 418.06 374.375C417.775 375.689 416.984 376.836 415.857 377.569L413.268 379.251C408.934 382.067 403.725 383.214 398.609 382.479C393.493 381.743 388.818 379.175 385.453 375.251L364.194 350.46L401.355 345.462Z"
                    fill="#FFCCB3" />
                <path
                    d="M389.131 355.119C389.131 355.119 395.063 375.487 406.98 382.021C410.074 380.823 413.047 379.332 415.857 377.569L402.494 355.119"
                    fill="#FCBA9F" />
                <path
                    d="M115.064 446.715L177.989 416.56C183.918 413.719 188.931 409.271 192.459 403.723L253.247 308.099C257.031 302.146 262.52 297.469 268.999 294.678L356.552 256.958L337.808 398.707L337.478 403.943C337.478 403.943 314.321 463.919 257.563 485.708L166.818 541.211L115.064 446.715Z"
                    fill="#FFCCB3" />
                <path
                    d="M183.543 413.233C183.543 413.233 213.309 487.529 257.563 485.708L229.308 502.99C229.308 502.99 133.405 485.2 169.304 420.575L183.543 413.233Z"
                    fill="#FCBA9F" />
                <path d="M343 283.191C343 283.191 312.044 301.949 313.686 345.462L350.861 331.57L343 283.191Z"
                    fill="#FCBA9F" />
                <path
                    d="M420.764 345.462L436.784 370.557C437.507 371.69 437.753 373.062 437.469 374.375C437.185 375.689 436.393 376.836 435.266 377.569L432.677 379.251C428.343 382.067 423.134 383.214 418.018 382.479C412.902 381.743 408.227 379.175 404.862 375.251L383.604 350.46L420.764 345.462Z"
                    fill="#FFCCB3" />
                <path class="wavepath2"
                    d="M657.596 355.358L355.025 355.089C353.789 355.122 352.56 354.892 351.421 354.412C350.281 353.933 349.257 353.216 348.416 352.31C347.575 351.403 346.938 350.328 346.546 349.155C346.154 347.982 346.017 346.74 346.144 345.51L362.456 164.38C362.752 161.766 363.993 159.351 365.947 157.59C367.9 155.829 370.43 154.843 373.061 154.818L675.631 155.088C676.867 155.054 678.096 155.285 679.236 155.764C680.375 156.243 681.4 156.96 682.24 157.866C683.081 158.773 683.718 159.849 684.11 161.021C684.502 162.194 684.639 163.437 684.513 164.666L668.201 345.796C667.905 348.41 666.663 350.825 664.71 352.586C662.756 354.347 660.226 355.333 657.596 355.358Z"
                    fill="#1C85E8" />
                <path
                    d="M375.058 262.275C375.058 262.275 402.218 256.782 409.528 269.527C416.837 282.271 423.14 306.205 442.588 303.12C462.036 300.034 476.923 237.46 496.042 238.031C515.162 238.602 508.421 279.584 529.232 280.156C550.042 280.728 546.341 257.264 560.211 257.918C577.036 258.711 570.764 307.331 592.702 307.904C614.64 308.477 618.22 243.682 651.384 244.819"
                    stroke="white" stroke-width="7.56507" stroke-miterlimit="10" stroke-linecap="round" />
                <path d="M390.506 185.154L443.739 185.201" stroke="white" stroke-width="11.9991" stroke-miterlimit="10"
                    stroke-linecap="round" />
                <path opacity="0.4" d="M388.308 209.556L498.318 209.654" stroke="white" stroke-width="11.9991"
                    stroke-miterlimit="10" stroke-linecap="round" />
                <path
                    d="M285.307 354.46L324.121 337.363L363.814 310.268C374.253 303.143 396.053 299.933 403.901 309.839C411.884 319.915 402.917 339.847 393.235 348.302L356.552 380.335L337.477 403.943L285.307 354.46Z"
                    fill="#FFCCB3" />
                <path
                    d="M364.194 320.557C364.194 320.557 369.434 340.763 383.02 344.259L397.43 332.085C398.891 330.997 400.115 329.623 401.028 328.047C401.941 326.47 402.523 324.724 402.739 322.916C402.955 321.107 402.801 319.273 402.285 317.526C401.769 315.779 400.903 314.155 399.739 312.754C397.706 310.306 394.87 308.66 391.736 308.11C388.602 307.561 385.374 308.143 382.63 309.753L364.194 320.557Z"
                    stroke="#FF967C" stroke-width="3" stroke-linecap="round" />
                <path
                    d="M180.38 414.062C180.38 414.062 172.858 467.857 238.316 498.66C238.316 498.66 191.294 541.794 173.165 549.047C155.037 556.299 86.9239 482.182 111.15 440.114C117.944 428.317 180.38 414.062 180.38 414.062Z"
                    fill="#1C85E8" />
                <!-- <path
                    d="M428.401 357.425C428.401 357.425 402.888 357.945 394.007 362.593L387.597 355.118L426.929 355.119L428.401 357.425Z"
                    fill="#FCBA9F" /> -->
                <path class="wavepath"
                    d="M898.16 355.358H716.755C703.09 355.358 692.993 344.28 694.203 330.615L718.542 55.742C719.752 42.078 731.81 31 745.475 31H926.88C940.55 31 950.64 42.078 949.43 55.742L925.09 330.615C923.88 344.28 911.82 355.358 898.16 355.358Z"
                    fill="#FEBB94" />
                <path
                    d="M872.19 186.209C900.92 158.728 903.81 115.137 878.66 88.846C853.507 62.555 809.831 63.519 781.106 91C752.382 118.481 749.486 162.072 774.639 188.363C799.792 214.655 843.469 213.69 872.19 186.209Z"
                    fill="white" />
                <path d="M830.493 140.744L876.03 182.276C876.03 182.276 886.39 171.141 889.48 163.183L830.493 140.744Z"
                    fill="url(#paint4_linear_214_88)" />
                <path
                    d="M833.525 60.963L827.054 134.04C826.91 135.371 827.159 136.715 827.77 137.907C828.381 139.098 829.328 140.084 830.493 140.744L892.28 175.142C892.28 175.142 928.97 72.783 833.525 60.963Z"
                    fill="#1C85E8" />
                <path d="M736.814 258.069H811.966" stroke="white" stroke-width="12" stroke-miterlimit="10"
                    stroke-linecap="round" />
                <path d="M731.313 320.201H806.465" stroke="white" stroke-width="12" stroke-miterlimit="10"
                    stroke-linecap="round" />
                <path opacity="0.4" d="M734.095 288.784H889.4" stroke="white" stroke-width="12" stroke-miterlimit="10"
                    stroke-linecap="round" />
                <path
                    d="M675.065 557.855C675.065 557.855 699.29 551.394 712.183 565.277C712.183 565.277 735.357 561.069 744.779 573.961C744.779 573.961 765.324 575.151 771.274 583.531C776.222 584.214 780.901 586.195 784.834 589.274C788.767 592.352 791.815 596.418 793.666 601.057C799.284 614.298 794.519 690.849 788.935 718.28C787.539 725.141 788.017 732.251 790.32 738.863L804.524 779.682L706.247 820.765L682.915 759.909C682.915 759.909 654.514 714.268 650.456 706.153C646.399 698.039 653.276 630.706 639.425 588.643L675.065 557.855Z"
                    fill="#FFCCB3" />
                <path
                    d="M695.591 792.971L692.756 785.576C692.756 785.576 743.751 782.316 790.32 738.863L794.774 751.663C794.774 751.663 789.022 778.103 762.834 790.564C736.645 803.026 695.591 792.971 695.591 792.971Z"
                    fill="#FCBA9F" />
                <path
                    d="M695.591 792.971C695.591 792.971 757.318 798.593 794.774 751.663C794.774 751.663 808.603 758.913 829.838 811.994C836.36 828.298 727.451 886.345 709.842 862.216C709.842 862.216 694.64 830.059 695.591 792.971Z"
                    fill="#5661AE" />
                <path
                    d="M645.465 614.035C645.465 614.035 643.336 625.331 633.269 625.332C626.701 625.332 598.232 616.731 579.23 610.751C574.06 609.124 568.514 609.124 563.344 610.751C558.174 612.378 553.628 615.554 550.322 619.848L549.167 621.348C548.593 622.091 548.177 622.943 547.942 623.853C547.707 624.762 547.66 625.709 547.802 626.637C547.944 627.565 548.273 628.455 548.769 629.252C549.265 630.05 549.918 630.738 550.688 631.275C566.775 642.506 610.216 672.988 615.772 678.544C622.61 685.381 660.685 723.713 660.685 723.713L645.465 614.035Z"
                    fill="#FFCCB3" />
                <path
                    d="M643.154 602.717C643.154 602.717 663.731 630.569 660.685 636.666C657.639 642.763 625.732 624.122 625.732 624.122C625.732 624.122 651.479 630.745 643.154 602.717Z"
                    fill="#FCBA9F" />
                <path
                    d="M639.425 588.643L604.8 483.495C603.613 479.888 603.161 476.079 603.473 472.294C603.785 468.51 604.854 464.826 606.616 461.463C608.378 458.099 610.798 455.123 613.731 452.712C616.665 450.301 620.053 448.503 623.694 447.426C626.675 446.545 629.874 446.783 632.691 448.097C635.508 449.411 637.747 451.709 638.986 454.559L687.561 566.218L639.425 588.643Z"
                    fill="#FFCCB3" />
                <path
                    d="M624.41 543.045C625.391 544.657 626.695 546.049 628.239 547.133C629.784 548.218 631.535 548.971 633.385 549.347"
                    stroke="#FF967C" stroke-width="3" stroke-linecap="round" />
                <path
                    d="M636.868 489.217C641.081 487.35 645.728 484.741 647.727 481.696L634.834 451.083C634.558 450.423 634.145 449.83 633.622 449.342C633.099 448.854 632.479 448.483 631.802 448.253C631.125 448.023 630.407 447.94 629.695 448.009C628.983 448.078 628.294 448.297 627.674 448.652C623.086 451.3 617.03 456.078 616.795 462.938L625.515 484.638C625.943 485.698 626.58 486.66 627.388 487.468C628.196 488.276 629.159 488.913 630.218 489.34C631.278 489.768 632.413 489.977 633.556 489.956C634.698 489.935 635.825 489.683 636.868 489.217Z"
                    stroke="#FF967C" stroke-width="3" stroke-linecap="round" />
                <path d="M683.654 557.236L695.591 583.531" stroke="#FF967C" stroke-width="3" stroke-linecap="round" />
                <path d="M712.66 565.815C718.726 574.511 721.977 584.86 721.974 595.464" stroke="#FF967C"
                    stroke-width="3" stroke-linecap="round" />
                <path d="M745.349 574.453C745.349 574.453 751.358 588.234 751.854 599.132" stroke="#FF967C"
                    stroke-width="3" stroke-linecap="round" />
                <path d="M772.115 584.349C774.482 590.164 775.4 596.468 774.789 602.717" stroke="#FF967C"
                    stroke-width="3" stroke-linecap="round" />
                <path
                    d="M576.113 644.131C576.113 644.131 583.223 635.101 580.784 630.572C578.345 626.043 567.496 619.638 561.226 620.335C558.234 620.786 555.347 621.769 552.703 623.239C552.222 623.49 551.816 623.863 551.524 624.321C551.232 624.778 551.064 625.303 551.037 625.845C551.011 626.387 551.126 626.927 551.372 627.41C551.619 627.894 551.987 628.305 552.441 628.602L576.113 644.131Z"
                    stroke="#FF967C" stroke-width="3" stroke-linecap="round" />
                <path class="heartbeater2"
                    d="M453.842 754.234H237.227C236.333 754.251 235.446 754.077 234.625 753.722C233.804 753.367 233.069 752.84 232.47 752.177C231.87 751.514 231.42 750.729 231.15 749.877C230.879 749.025 230.795 748.125 230.903 747.237L239.409 658.75C239.621 656.852 240.516 655.096 241.927 653.809C243.338 652.522 245.168 651.792 247.078 651.754H463.694C464.588 651.736 465.475 651.911 466.295 652.266C467.116 652.62 467.851 653.147 468.451 653.81C469.05 654.474 469.5 655.258 469.771 656.11C470.041 656.963 470.125 657.863 470.018 658.75L461.512 747.237C461.299 749.135 460.404 750.891 458.993 752.178C457.583 753.465 455.752 754.196 453.842 754.234Z"
                    fill="#FEBB94" />
                <path d="M257.563 674.83H391.246" stroke="#EF6A77" stroke-width="11.6898" stroke-miterlimit="10"
                    stroke-linecap="round" />
                <path d="M257.563 674.83H350.46" stroke="white" stroke-width="11.6898" stroke-miterlimit="10"
                    stroke-linecap="round" />
                <path d="M255.563 702.994H389.246" stroke="#EF6A77" stroke-width="11.6898" stroke-miterlimit="10"
                    stroke-linecap="round" />
                <path d="M255.563 702.994H311.103" stroke="white" stroke-width="11.6898" stroke-miterlimit="10"
                    stroke-linecap="round" />
                <path d="M251.192 731.158H384.875" stroke="#EF6A77" stroke-width="11.6898" stroke-miterlimit="10"
                    stroke-linecap="round" />
                <path d="M251.192 731.158H285.157" stroke="white" stroke-width="11.6898" stroke-miterlimit="10"
                    stroke-linecap="round" />
                <path
                    d="M438.567 682.817C442.979 682.817 446.555 679.241 446.555 674.83C446.555 670.418 442.979 666.842 438.567 666.842C434.156 666.842 430.58 670.418 430.58 674.83C430.58 679.241 434.156 682.817 438.567 682.817Z"
                    fill="white" />
                <path
                    d="M435.977 709.749C440.389 709.749 443.965 706.173 443.965 701.762C443.965 697.35 440.389 693.774 435.977 693.774C431.565 693.774 427.989 697.35 427.989 701.762C427.989 706.173 431.565 709.749 435.977 709.749Z"
                    fill="white" />
                <path
                    d="M433.086 739.146C437.497 739.146 441.074 735.569 441.074 731.158C441.074 726.746 437.497 723.17 433.086 723.17C428.674 723.17 425.098 726.746 425.098 731.158C425.098 735.569 428.674 739.146 433.086 739.146Z"
                    fill="white" />
            </g>
        </g>
    </g>
    <defs>
        <linearGradient id="paint0_linear_214_88" x1="495.203" y1="-69.6635" x2="779.04" y2="1352.72"
            gradientUnits="userSpaceOnUse">
            <stop stop-color="white" />
            <stop offset="1" stop-color="#94B9FF" />
        </linearGradient>
        <linearGradient id="paint1_linear_214_88" x1="528.724" y1="172.221" x2="556.245" y2="600.637"
            gradientUnits="userSpaceOnUse">
            <stop stop-color="white" />
            <stop offset="1" stop-color="#94B9FF" />
        </linearGradient>
        <linearGradient id="paint2_linear_214_88" x1="610.482" y1="391.685" x2="655.499" y2="764.442"
            gradientUnits="userSpaceOnUse">
            <stop stop-color="white" />
            <stop offset="1" stop-color="#94B9FF" />
        </linearGradient>
        <linearGradient id="paint3_linear_214_88" x1="513.911" y1="581.219" x2="521.84" y2="800.771"
            gradientUnits="userSpaceOnUse">
            <stop stop-color="white" />
            <stop offset="1" stop-color="#94B9FF" />
        </linearGradient>
        <linearGradient id="paint4_linear_214_88" x1="858.516" y1="140.645" x2="865.28" y2="229.221"
            gradientUnits="userSpaceOnUse">
            <stop stop-color="white" />
            <stop offset="1" stop-color="#94B9FF" />
        </linearGradient>
        <clipPath id="clip0_214_88">
            <rect width="1070" height="900" fill="white" />
        </clipPath>
        <clipPath id="clip1_214_88">
            <rect width="1440" height="1024" fill="white" transform="translate(-139 -62)" />
        </clipPath>
    </defs>
</svg>