<!DOCTYPE svg PUBLIC "-//W3C//DTD SVG 1.1//EN" "http://www.w3.org/Graphics/SVG/1.1/DTD/svg11.dtd">
<!-- Uploaded to: SVG Repo, www.svgrepo.com, Transformed by: SVG Repo Mixer Tools -->
<svg width="800px" height="800px" viewBox="0 0 64 64" version="1.1" xmlns="http://www.w3.org/2000/svg" xmlns:xlink="http://www.w3.org/1999/xlink" fill="#000000">
<g id="SVGRepo_bgCarrier" stroke-width="0"/>
<g id="SVGRepo_tracerCarrier" stroke-linecap="round" stroke-linejoin="round"/>
<g id="SVGRepo_iconCarrier"> <title>con-ruler-pencil</title> <desc>Created with Sketch.</desc> <defs> </defs> <g id="General" stroke="none" stroke-width="1" fill="none" fill-rule="evenodd"> <g id="SLICES-64px" transform="translate(-540.000000, -300.000000)"> </g> <g id="ICONS" transform="translate(-535.000000, -295.000000)"> <g id="con-ruler-pencil" transform="translate(548.000000, 298.000000)"> <polygon id="Fill-494" fill="#1c85e8" points="0 58 14 58 14 0 0 0"> </polygon> <path d="M33,0 L27,0 C25.344,0 24,1.344 24,3 L24,8 L36,8 L36,3 C36,1.344 34.656,0 33,0" id="Fill-495" fill="#ffa33c"> </path> <polygon id="Fill-496" fill="#ffa33c" points="32.0371 52 27.9631 52 30.0001 58"> </polygon> <polygon id="Fill-497" fill="#1c85e8" points="24.375 41.3662 28 38.0002 32 42.0002 36 38.0002 36 8.0002 24 8.0002 24 40.3262 24.355 41.3732"> </polygon> <polygon id="Fill-498" fill="#FFFFFF" points="36 38 32 42 28 38 24.375 41.366 24.355 41.373 27.963 52 32.037 52 36 40.326"> </polygon> <polygon id="Stroke-499" stroke="#3d30a2" stroke-width="2" stroke-linecap="round" stroke-linejoin="round" points="24 8 36 8 36 40.326 30 58 24 40.326"> </polygon> <polyline id="Stroke-500" stroke="#3d30a2" stroke-width="2" stroke-linecap="round" stroke-linejoin="round" points="24.375 41.3662 28 38.0002 32 42.0002 36 38.0002"> </polyline> <path d="M27.9629,52 L32.0369,52" id="Stroke-501" stroke="#3d30a2" stroke-width="2" stroke-linecap="round" stroke-linejoin="round"> </path> <path d="M28,34 L28,12" id="Stroke-502" stroke="#3d30a2" stroke-width="2" stroke-linecap="round" stroke-linejoin="round"> </path> <polygon id="Stroke-503" stroke="#3d30a2" stroke-width="2" stroke-linecap="round" stroke-linejoin="round" points="0 58 14 58 14 0 0 0"> </polygon> <path d="M6,32 L14,32" id="Stroke-504" stroke="#3d30a2" stroke-width="2" stroke-linecap="round" stroke-linejoin="round"> </path> <path d="M10,26 L14,26" id="Stroke-505" stroke="#3d30a2" stroke-width="2" stroke-linecap="round" stroke-linejoin="round"> </path> <path d="M6,20 L14,20" id="Stroke-506" stroke="#3d30a2" stroke-width="2" stroke-linecap="round" stroke-linejoin="round"> </path> <path d="M6,8 L14,8" id="Stroke-507" stroke="#3d30a2" stroke-width="2" stroke-linecap="round" stroke-linejoin="round"> </path> <path d="M10,14 L14,14" id="Stroke-508" stroke="#3d30a2" stroke-width="2" stroke-linecap="round" stroke-linejoin="round"> </path> <path d="M8,50 L14,50" id="Stroke-509" stroke="#3d30a2" stroke-width="2" stroke-linecap="round" stroke-linejoin="round"> </path> <path d="M6,44 L14,44" id="Stroke-510" stroke="#3d30a2" stroke-width="2" stroke-linecap="round" stroke-linejoin="round"> </path> <path d="M10,38 L14,38" id="Stroke-511" stroke="#3d30a2" stroke-width="2" stroke-linecap="round" stroke-linejoin="round"> </path> <path d="M24,8 L24,3 C24,1.344 25.344,0 27,0 L33,0 C34.656,0 36,1.344 36,3 L36,8" id="Stroke-512" stroke="#3d30a2" stroke-width="2" stroke-linecap="round" stroke-linejoin="round"> </path> </g> </g> </g> </g>
</svg>